<?xml version="1.0" standalone="no"?>
<!DOCTYPE svg PUBLIC "-//W3C//DTD SVG 20010904//EN"
 "http://www.w3.org/TR/2001/REC-SVG-20010904/DTD/svg10.dtd">
<svg version="1.0" xmlns="http://www.w3.org/2000/svg"
 width="700.000000pt" height="700.000000pt" viewBox="0 0 700.000000 700.000000"
 preserveAspectRatio="xMidYMid meet">
<metadata>
Created by potrace 1.14, written by Peter Selinger 2001-2017
</metadata>
<g transform="translate(0.000000,700.000000) scale(0.100000,-0.100000)"
fill="#000000" stroke="none">
<path d="M1525 6984 c-379 -51 -707 -207 -982 -468 -303 -286 -491 -671 -533
-1091 -8 -78 -10 -665 -8 -1995 l3 -1885 23 -113 c137 -684 631 -1211 1292
-1377 222 -56 174 -55 2178 -55 1170 0 1880 4 1937 10 134 15 236 38 369 81
648 212 1113 793 1186 1481 14 130 13 3743 0 3863 -95 828 -730 1464 -1552
1554 -156 17 -3783 13 -3913 -5z m2250 -2186 c149 -402 275 -736 281 -742 6
-6 340 -132 743 -281 402 -148 731 -272 731 -275 0 -3 -329 -126 -731 -275
-403 -148 -737 -275 -743 -281 -6 -6 -132 -340 -281 -742 -148 -403 -272 -732
-275 -732 -3 0 -126 329 -275 732 -148 402 -275 736 -281 742 -6 6 -340 133
-742 281 -403 149 -732 272 -732 275 0 3 329 127 732 275 402 149 736 275 742
281 6 6 133 340 281 742 149 403 272 732 275 732 3 0 127 -329 275 -732z"/>
</g>
</svg>
